<svg width="90" height="19" viewBox="0 0 90 19" fill="none" xmlns="http://www.w3.org/2000/svg">
  <title>Recidiviz</title>  
  <path d="M3.40202 7.88579C3.90066 7.02271 4.56015 6.3469 5.38049 5.85836C6.20084 5.35354 7.11769 5.10113 8.13106 5.10113V8.78958H7.14182C4.64862 8.78958 3.40202 9.96207 3.40202 12.307V18.829H0V5.29654H3.40202V7.88579Z" fill="#F2F1F0"/>
  <path d="M21.3782 11.5498C21.3782 11.8918 21.3379 12.2826 21.2575 12.7223H11.4616C11.5099 13.9274 11.8316 14.8149 12.4267 15.3848C13.0219 15.9548 13.7618 16.2398 14.6465 16.2398C15.4347 16.2398 16.0861 16.0444 16.6009 15.6535C17.1317 15.2627 17.4695 14.7334 17.6142 14.0658H21.2093C21.0323 15.0103 20.6543 15.8571 20.0753 16.6062C19.4962 17.3553 18.7482 17.9415 17.8314 18.3649C16.9306 18.7883 15.9253 19 14.8154 19C13.5125 19 12.3544 18.7232 11.341 18.1695C10.3276 17.5995 9.53946 16.7934 8.97648 15.7512C8.41349 14.709 8.132 13.4795 8.132 12.0628C8.132 10.646 8.41349 9.41654 8.97648 8.37432C9.53946 7.31583 10.3276 6.50974 11.341 5.95607C12.3544 5.40239 13.5125 5.12555 14.8154 5.12555C16.1344 5.12555 17.2845 5.40239 18.2657 5.95607C19.263 6.50974 20.027 7.27512 20.5578 8.25219C21.1047 9.21298 21.3782 10.3122 21.3782 11.5498ZM17.952 11.2078C18.0003 10.1005 17.7107 9.26183 17.0834 8.69187C16.4722 8.12191 15.7162 7.83693 14.8154 7.83693C13.8985 7.83693 13.1265 8.12191 12.4991 8.69187C11.8718 9.26183 11.526 10.1005 11.4616 11.2078H17.952Z" fill="#F2F1F0"/>
  <path d="M28.5946 5.12555C30.3157 5.12555 31.7473 5.59781 32.8894 6.54231C34.0475 7.48682 34.7713 8.7733 35.0609 10.4018H31.4658C31.3211 9.68523 30.9913 9.12341 30.4766 8.7163C29.9619 8.2929 29.3104 8.0812 28.5222 8.0812C27.6215 8.0812 26.8655 8.42318 26.2542 9.10713C25.6591 9.7748 25.3615 10.76 25.3615 12.0628C25.3615 13.3655 25.6591 14.3589 26.2542 15.0429C26.8655 15.7105 27.6215 16.0444 28.5222 16.0444C29.3104 16.0444 29.9619 15.8408 30.4766 15.4337C30.9913 15.0103 31.3211 14.4403 31.4658 13.7238H35.0609C34.7713 15.3523 34.0475 16.6387 32.8894 17.5832C31.7473 18.5277 30.3157 19 28.5946 19C27.2917 19 26.1336 18.7232 25.1202 18.1695C24.1069 17.5995 23.3187 16.7934 22.7557 15.7512C22.1927 14.709 21.9112 13.4795 21.9112 12.0628C21.9112 10.646 22.1927 9.41654 22.7557 8.37432C23.3187 7.31583 24.1069 6.50974 25.1202 5.95607C26.1336 5.40239 27.2917 5.12555 28.5946 5.12555Z" fill="#F2F1F0"/>
  <path d="M39.6738 5.29654V18.829H36.2718V5.29654H39.6738Z" fill="#F2F1F0"/>
  <path d="M46.7807 5.12555C47.9067 5.12555 48.8638 5.39425 49.6519 5.93164C50.4562 6.46903 51.0353 7.19369 51.3891 8.10563V0H54.767V18.829H51.3891V15.9955C51.0353 16.9074 50.4562 17.6402 49.6519 18.1939C48.8638 18.7313 47.9067 19 46.7807 19C45.6548 19 44.6414 18.7232 43.7406 18.1695C42.8399 17.6158 42.1321 16.8179 41.6174 15.7757C41.1188 14.7172 40.8694 13.4795 40.8694 12.0628C40.8694 10.646 41.1188 9.41654 41.6174 8.37432C42.1321 7.31583 42.8399 6.50974 43.7406 5.95607C44.6414 5.40239 45.6548 5.12555 46.7807 5.12555ZM47.8424 8.13006C46.7807 8.13006 45.9282 8.48017 45.2848 9.18041C44.6414 9.88064 44.3197 10.8414 44.3197 12.0628C44.3197 13.2841 44.6414 14.2449 45.2848 14.9451C45.9282 15.6291 46.7807 15.9711 47.8424 15.9711C48.8718 15.9711 49.7163 15.621 50.3758 14.9207C51.0514 14.2042 51.3891 13.2515 51.3891 12.0628C51.3891 10.8577 51.0514 9.90507 50.3758 9.20484C49.7163 8.48832 48.8718 8.13006 47.8424 8.13006Z" fill="#F2F1F0"/>
  <path d="M60.0457 5.29654V18.829H56.6437V5.29654H60.0457Z" fill="#F2F1F0"/>
  <path d="M67.7318 15.3848L71.1096 5.29654H74.7288L69.7826 18.829H65.6326L60.6864 5.29654H64.3297L67.7318 15.3848Z" fill="#F2F1F0"/>
  <path d="M78.8154 5.29654V18.829H75.4134V5.29654H78.8154Z" fill="#F2F1F0"/>
  <path d="M83.4372 15.9466H90V18.829H79.7216V16.0932L85.8741 8.15448H79.8663V5.29654H89.7587V8.00792L83.4372 15.9466Z" fill="#F2F1F0"/>
</svg>
