<svg width="12" height="16" viewBox="0 0 12 16" fill="none" xmlns="http://www.w3.org/2000/svg">
<path d="M0.384277 11.3569C0.384277 10.0787 0.927257 9.40388 1.98428 9.11372C1.81696 8.69542 1.7333 8.38692 1.7333 8.18823C1.7333 7.45269 2.66276 6.54117 3.36467 6.54117C3.54245 6.54117 3.7516 6.58823 3.99212 6.68235C3.49017 5.24967 3.12938 4.16209 2.90977 3.41961C2.62305 2.45192 2.23925 1.19356 2.90977 0.43922C3.17121 0.14641 3.52154 0 3.96075 0C4.7137 0 5.61827 1.54248 6.67448 4.62745L6.94115 5.39608C7.34126 4.39581 8.56907 0.29804 9.95291 0.29804C10.3712 0.29804 10.7006 0.43922 10.9411 0.72157C11.6173 1.48225 11.2188 2.60868 10.9411 3.59216C10.7215 4.35556 10.3764 5.40131 9.90586 6.72941C10.5019 6.87582 10.9307 7.15817 11.1921 7.57647C11.4745 8.02614 11.6157 8.72157 11.6157 9.66275C11.6157 11.5242 11.0614 13.0458 9.95291 14.2275C8.8235 15.4092 7.39082 16 5.65487 16C3.511 16 1.62814 14.7408 0.792117 13.0353C0.520227 12.4706 0.384277 11.9111 0.384277 11.3569ZM1.40389 11.2784C1.40389 11.9337 1.84131 12.7246 2.23526 13.2549C3.15801 14.4477 4.36462 14.9647 5.78036 14.9647C7.12938 14.9647 8.26402 14.4575 9.18428 13.4431C10.0941 12.4392 10.549 11.1686 10.549 9.63137C10.549 9.10563 10.5476 8.31923 10.1568 7.98431C9.87448 7.74379 9.32023 7.53464 8.49408 7.35686C7.66794 7.16863 6.78951 7.07451 5.85879 7.07451C5.4991 7.07451 5.30977 7.12882 5.30977 7.48235C5.30977 7.91111 5.55029 8.21438 6.03134 8.39215C6.55422 8.61176 7.41696 8.72156 8.61957 8.72156H9.05879C9.30464 8.72156 9.52294 8.84999 9.59212 9.38038C9.14119 9.83131 8.3984 9.89184 7.898 10.2745C7.4797 10.5778 7.14506 10.9385 6.89408 11.3568C6.65356 11.7647 6.5333 12.1516 6.5333 12.5176C6.5333 12.7372 6.58559 13.0039 6.69016 13.3176C6.80519 13.6627 6.8627 13.8876 6.8627 13.9921C6.85994 14.0892 6.83134 14.1568 6.71371 14.2039C6.22744 14.3137 6.00519 14.0758 5.79604 13.6784C5.61826 13.3438 5.51892 12.915 5.498 12.3921C5.43468 12.4133 5.2054 12.4078 5.13722 12.4078C5.14768 12.4601 5.15291 12.5229 5.15291 12.5961C5.15291 12.9098 5.03265 13.1765 4.79213 13.3961C4.55161 13.6157 4.26925 13.7255 3.94507 13.7255C3.45357 13.7255 2.95684 13.4902 2.45487 13.0196C1.95291 12.5386 1.70193 12.068 1.70193 11.6079C1.70193 11.3348 1.81873 11.193 1.99997 11.0118C2.26141 11.3359 2.43919 11.5608 2.5333 11.6863C2.97252 12.3033 3.3699 12.6118 3.72546 12.6118C3.9251 12.6118 4.08624 12.4639 4.08624 12.3608C4.08624 12.2771 4.02349 12.1255 3.898 11.9059C3.71451 11.5619 2.99064 10.6023 2.61173 10.2902C2.45487 10.1438 2.33983 10.0706 2.26663 10.0706C1.91367 10.0706 1.40389 10.5236 1.40389 11.2784ZM2.81566 8.28235C2.81566 8.4183 2.89932 8.65359 3.06664 8.98823C3.37506 9.58304 4.10017 10.5428 4.65095 11.0274C4.90193 11.2366 5.09017 11.3412 5.21566 11.3412C5.37662 11.3412 5.54507 11.1497 5.54507 10.9804C5.54507 10.8549 5.45095 10.5516 5.26272 10.0706C5.00362 9.44136 4.45254 8.28966 3.92939 7.85884C3.76206 7.70196 3.59997 7.62353 3.44311 7.62353C3.21931 7.62353 2.81566 8.03357 2.81566 8.28235ZM3.52154 1.50588C3.52154 1.86144 3.64703 2.42091 3.89801 3.18431C4.12807 3.9268 4.47317 4.92026 4.9333 6.16471C5.17016 6.02259 5.74372 6.09008 6.04703 6.11765L4.96468 2.98039C4.67187 2.14379 4.4418 1.6 4.27448 1.34902C4.13853 1.12941 4.00258 1.01961 3.86664 1.01961C3.63914 1.01961 3.52154 1.27652 3.52154 1.50588ZM6.12546 9.50588C6.21958 9.7464 6.31892 10.0078 6.4235 10.2902C6.63265 10.0497 6.8418 9.85097 7.05095 9.69411C6.73187 9.6303 6.47505 9.62241 6.12546 9.50588ZM7.77252 6.30588L8.8235 6.49412C9.29409 5.19739 9.65487 4.15686 9.90585 3.37255C10.0504 2.90403 10.4694 1.83606 10.1882 1.47451C10.0931 1.30816 9.80022 1.25842 9.46663 1.78824C9.26794 2.09151 9.0431 2.61961 8.79212 3.37255L7.77252 6.30588Z" fill="#A6BEBD"/>
</svg>
