<svg width="16" height="16" viewBox="0 0 16 16" fill="none" xmlns="http://www.w3.org/2000/svg">
<path d="M15 0H1C0.734784 0 0.48043 0.105357 0.292893 0.292893C0.105357 0.48043 0 0.734784 0 1L0 15C0 15.2652 0.105357 15.5196 0.292893 15.7071C0.48043 15.8946 0.734784 16 1 16H15C15.2652 16 15.5196 15.8946 15.7071 15.7071C15.8946 15.5196 16 15.2652 16 15V1C16 0.734784 15.8946 0.48043 15.7071 0.292893C15.5196 0.105357 15.2652 0 15 0V0ZM13.292 3.791L12.434 4.614C12.3968 4.64114 12.3679 4.67798 12.3502 4.72048C12.3326 4.76299 12.327 4.80952 12.334 4.855V10.9C12.327 10.9455 12.3326 10.992 12.3502 11.0345C12.3679 11.077 12.3968 11.1139 12.434 11.141L13.272 11.964V12.145H9.057V11.964L9.925 11.121C10.01 11.036 10.01 11.011 10.01 10.88V5.993L7.6 12.124H7.271L4.461 5.994V10.1C4.44944 10.1854 4.45748 10.2722 4.48452 10.354C4.51155 10.4358 4.55685 10.5103 4.617 10.572L5.746 11.942V12.123H2.546V11.942L3.675 10.572C3.73466 10.5103 3.77896 10.4354 3.80433 10.3534C3.82969 10.2714 3.8354 10.1846 3.821 10.1V5.351C3.82727 5.28576 3.81804 5.21996 3.79406 5.15896C3.77008 5.09797 3.73203 5.0435 3.683 5L2.683 3.791V3.61H5.8L8.2 8.893L10.322 3.61H13.293L13.292 3.791Z" fill="#A6BEBD"/>
</svg>
