<svg width="16" height="14" viewBox="0 0 16 14" fill="none" xmlns="http://www.w3.org/2000/svg">
<path d="M16 2C15.4 2.3 14.8 2.4 14.1 2.5C14.8 2.1 15.3 1.5 15.5 0.7C14.9 1.1 14.2 1.3 13.4 1.5C12.8 0.9 11.9 0.5 11 0.5C9.3 0.5 7.8 2 7.8 3.8C7.8 4.1 7.8 4.3 7.9 4.5C5.2 4.4 2.7 3.1 1.1 1.1C0.8 1.6 0.7 2.1 0.7 2.8C0.7 3.9 1.3 4.9 2.2 5.5C1.7 5.5 1.2 5.3 0.7 5.1C0.7 6.7 1.8 8 3.3 8.3C3 8.4 2.7 8.4 2.4 8.4C2.2 8.4 2 8.4 1.8 8.3C2.2 9.6 3.4 10.6 4.9 10.6C3.8 11.5 2.4 12 0.8 12C0.5 12 0.3 12 0 12C1.5 12.9 3.2 13.5 5 13.5C11 13.5 14.3 8.5 14.3 4.2C14.3 4.1 14.3 3.9 14.3 3.8C15 3.3 15.6 2.7 16 2Z" fill="#A6BEBD"/>
</svg>
